<?xml version="1.0" encoding="UTF-8"?>
<svg width="342px" height="282px" viewBox="0 0 342 282" version="1.1" xmlns="http://www.w3.org/2000/svg" xmlns:xlink="http://www.w3.org/1999/xlink">
    <!-- Generator: Sketch 53.1 (72631) - https://sketchapp.com -->
    <title>分组 10</title>
    <desc>Created with Sketch.</desc>
    <defs>
        <linearGradient x1="46.7529877%" y1="77.4715096%" x2="50%" y2="16.2848775%" id="linearGradient-1">
            <stop stop-color="#E0E5FA" stop-opacity="0.193868886" offset="0%"></stop>
            <stop stop-color="#E4ECFF" offset="100%"></stop>
        </linearGradient>
        <linearGradient x1="50%" y1="0%" x2="50%" y2="100%" id="linearGradient-2">
            <stop stop-color="#95B0DE" offset="0%"></stop>
            <stop stop-color="#BECCE7" offset="100%"></stop>
        </linearGradient>
        <linearGradient x1="50%" y1="40.7893466%" x2="7.90641519%" y2="58.1118109%" id="linearGradient-3">
            <stop stop-color="#E1EBFB" offset="0%"></stop>
            <stop stop-color="#B6CCED" offset="100%"></stop>
        </linearGradient>
        <linearGradient x1="0%" y1="50%" x2="100%" y2="50%" id="linearGradient-4">
            <stop stop-color="#C7D8F5" offset="0%"></stop>
            <stop stop-color="#83A6D9" offset="100%"></stop>
        </linearGradient>
        <linearGradient x1="27.0211975%" y1="37.4556696%" x2="50%" y2="55.2197097%" id="linearGradient-5">
            <stop stop-color="#00A4FF" offset="0%"></stop>
            <stop stop-color="#006BFF" offset="100%"></stop>
        </linearGradient>
        <linearGradient x1="63.4603826%" y1="28.2054917%" x2="50%" y2="61.9134625%" id="linearGradient-6">
            <stop stop-color="#00A4FF" offset="0%"></stop>
            <stop stop-color="#006BFF" offset="100%"></stop>
        </linearGradient>
        <linearGradient x1="35.3208679%" y1="100%" x2="64.6791321%" y2="0%" id="linearGradient-7">
            <stop stop-color="#D6DDED" offset="0%"></stop>
            <stop stop-color="#ADC5E8" offset="100%"></stop>
        </linearGradient>
        <linearGradient x1="6.74726819%" y1="5.89553512%" x2="86.1407081%" y2="82.5830576%" id="linearGradient-8">
            <stop stop-color="#F9F9FE" offset="0%"></stop>
            <stop stop-color="#F2F2F9" offset="100%"></stop>
        </linearGradient>
        <path d="M14.1534724,-2.34817407e-15 L41.5693107,-3.96928627e-15 C46.4907814,-5.02201691e-16 48.2754256,0.512427284 50.0746418,1.4746586 C51.8738579,2.43688992 53.2858932,3.84892527 54.2481246,5.6481414 C55.2103559,7.44735753 55.7227832,9.23200173 55.7227832,14.1534724 L55.7227832,41.5693107 C55.7227832,46.4907814 55.2103559,48.2754256 54.2481246,50.0746418 C53.2858932,51.8738579 51.8738579,53.2858932 50.0746418,54.2481246 C48.2754256,55.2103559 46.4907814,55.7227832 41.5693107,55.7227832 L14.1534724,55.7227832 C9.23200173,55.7227832 7.44735753,55.2103559 5.6481414,54.2481246 C3.84892527,53.2858932 2.43688992,51.8738579 1.4746586,50.0746418 C0.512427284,48.2754256 -7.51663277e-16,46.4907814 -3.53994165e-15,41.5693107 L-1.39514535e-15,14.1534724 C-1.99785169e-15,9.23200173 0.512427284,7.44735753 1.4746586,5.6481414 C2.43688992,3.84892527 3.84892527,2.43688992 5.6481414,1.4746586 C7.44735753,0.512427284 9.23200173,-1.44411456e-15 14.1534724,-2.34817407e-15 Z" id="path-9"></path>
        <linearGradient x1="78.896877%" y1="0%" x2="0%" y2="82.6799884%" id="linearGradient-11">
            <stop stop-color="#ACC4E7" offset="0%"></stop>
            <stop stop-color="#CCD9ED" offset="100%"></stop>
        </linearGradient>
    </defs>
    <g id="交易" stroke="none" stroke-width="1" fill="none" fill-rule="evenodd">
        <g id="交易改动-copy-16" transform="translate(-204.000000, -528.000000)">
            <g id="Group-5-Copy-2" transform="translate(50.000000, 478.000000)">
                <g id="Bitmap-Copy">
                    <g id="分组-10" transform="translate(135.000000, 0.000000)">
                        <rect id="Rectangle" fill-rule="nonzero" x="0" y="0" width="380" height="380"></rect>
                        <path d="M193.694817,70 C148.065114,43.3333333 105.762473,43.3333333 66.7868947,70 C27.8113165,96.6666667 12.9260819,127.333333 22.131191,162 C31.3575819,187.186429 49.6507499,208.519762 77.0106949,226 C96.7328981,233.272331 106.594,251.923747 106.594,281.954248 C106.594,311.984749 128.824508,327.927312 173.285523,329.781936 C223.36597,331.049225 254.134558,316.892282 265.591287,287.311108 C275.64767,273.914459 287.661274,263.680112 301.632098,256.608067 C322.588335,246 370.527828,215 358.352482,158 C347.369629,129.665025 324.124884,113.998358 288.618248,111 C253.111611,108.001642 221.470467,94.3349754 193.694817,70 Z" id="路径-28" fill="url(#linearGradient-1)"></path>
                        <ellipse id="椭圆形" fill="#D8D8D8" fill-rule="nonzero" cx="290" cy="315" rx="21" ry="5"></ellipse>
                        <rect id="矩形-copy-13" fill="url(#linearGradient-2)" fill-rule="nonzero" x="125" y="81" width="136" height="251" rx="21"></rect>
                        <g id="分组-9" transform="translate(259.000000, 195.000000)" fill-rule="nonzero">
                            <path d="M12.7794377,92.311108 C8.05555018,108.443305 15.083881,118.323512 33.8644302,121.951731 L39.4482978,121.951731 C54.1494706,120.51761 61.8261039,113.5337 62.4781975,101 C62.9028166,96.1926664 61.9364711,93.2963691 59.5791611,92.311108 C57.221851,91.3258468 41.6219433,91.3258468 12.7794377,92.311108 Z" id="路径-39" fill="url(#linearGradient-3)"></path>
                            <ellipse id="椭圆形" fill="url(#linearGradient-4)" cx="36.5" cy="92.5" rx="23.5" ry="6.5"></ellipse>
                            <path d="M47.4777966,78 C51.8155415,65.0904765 62.126595,51.696429 78.4109572,37.8178574 C90.0825126,27.0102741 91.6011249,16.336605 82.966794,5.79685013 C77.5820072,0.105711223 69.8637124,-0.826572154 59.8119097,3 C44.7342055,8.73985823 28.5278947,28.646937 30.1285737,61.6080675 C31.1956931,83.5821544 31.8847305,96.0017829 32.1956859,98.866953 L36.3940794,99.2953425 L46.3158124,83.1139251 L47.4777966,78 Z" id="路径-41" fill="#006BFF"></path>
                            <path d="M40.6586042,86.8510326 C51.4966911,65.8332467 66.1275443,59.9731874 84.551164,69.2708546 C98.7627574,80.8174082 100.618405,90.8255708 90.1181077,99.2953425 C89.5786499,99.3911011 89.1748927,99.4592041 88.906836,99.4996516 C79.7106854,100.887274 71.3892625,98.3873896 63.9425675,92 C60.591622,88.270006 56.9950116,87.0038299 53.1527362,88.2014716 C48.3722056,89.6915685 44.0413439,94.7631557 41.7782216,99.1387747 L36.8853813,99.0493724 C37.0387453,97.5296919 38.2964863,93.4635786 40.6586042,86.8510326 Z" id="路径-40" fill="url(#linearGradient-5)"></path>
                            <path d="M20.8892948,87.9331017 C9.45310698,74.1305033 2.75644794,60.5243367 0.799317641,47.114602 C0.181519148,41.0885119 4.59793313,39.3836446 14.0485596,42 C28.2244993,45.9245331 32.8226627,66.1707456 33.5907326,71 C34.1027792,74.2195029 34.5670014,79.2114934 34.9833992,85.9759714 L34.9833992,99.3315228 L29.4861192,98.8638584 L20.8892948,87.9331017 Z" id="路径-42" fill="url(#linearGradient-6)"></path>
                            <path d="M60.3804858,26 C46.0012821,45.4438275 38.2077868,66.4431388 37,88.9979341 L37,98.3315228" id="路径-43" stroke="#FFFFFF" stroke-width="2" opacity="0.2" stroke-linecap="round"></path>
                            <path d="M35.6173382,99.2953425 C30.6248179,80.4125658 25.3268141,68.0248913 19.7233268,62.1323191" id="路径-44" stroke="#FFFFFF" stroke-width="2" opacity="0.2" stroke-linecap="round"></path>
                        </g>
                        <rect id="矩形" fill="url(#linearGradient-7)" fill-rule="nonzero" x="113" y="81" width="136" height="251" rx="20"></rect>
                        <rect id="矩形" fill="#FFFFFF" fill-rule="nonzero" x="120" y="116" width="125" height="180" rx="5"></rect>
                        <g id="logo" transform="translate(155.000000, 166.000000)">
                            <mask id="mask-10" fill="white">
                                <use xlink:href="#path-9"></use>
                            </mask>
                            <use id="Mask-Copy" stroke-opacity="0.5" stroke="#F7F7FB" stroke-width="0.5" fill="url(#linearGradient-8)" xlink:href="#path-9"></use>
                            <g id="Group" mask="url(#mask-10)">
                                <g transform="translate(15.349563, 8.023049)">
                                    <path d="M17.2576947,12.2160907 C17.2576947,6.51679654 14.4393321,1.61609951 12.2952481,0.0197644637 C12.2865252,0.015039037 12.131258,-0.0708778113 12.1443423,0.156801837 C12.1443423,0.159808926 12.1417254,0.161097679 12.1417254,0.163675185 C11.9629064,11.1679051 6.25596199,14.1500789 3.11834198,18.1675508 C-4.12252088,27.4384083 2.61154264,37.6032306 9.46903492,39.4818025 C13.3057938,40.5329951 8.58279029,37.6221323 7.97436939,31.4734931 C7.23903059,24.0412561 17.2576947,18.3681666 17.2576947,12.2160907" id="Fill-13" fill="#1D2243"></path>
                                    <path d="M20.2243683,15.9902386 C20.1813122,15.9610614 20.1203517,15.9408949 20.0781482,16.0108342 C19.9630479,17.3946039 18.5588238,20.3539402 16.7790316,23.0717068 C10.7430849,32.2895437 14.1828797,36.7326244 16.1174179,39.1195735 C17.2402856,40.5050595 16.1174179,39.1195735 18.9241608,37.7036231 C19.1441303,37.5924924 24.4012315,34.6250037 24.970765,27.8636261 C25.5219677,21.3163574 21.6149508,17.1890766 20.2243683,15.9902386" id="Fill-15" fill="#2EA7DF"></path>
                                </g>
                            </g>
                        </g>
                        <rect id="矩形" fill="#DFE9FF" fill-rule="nonzero" x="138" y="97" width="86" height="5" rx="2.5"></rect>
                        <circle id="椭圆形" fill="url(#linearGradient-11)" fill-rule="nonzero" cx="182" cy="314" r="13"></circle>
                    </g>
                </g>
            </g>
        </g>
    </g>
</svg>